<svg xmlns="http://www.w3.org/2000/svg" viewBox="0 0 320 320" role="img" aria-hidden="true">
  <defs>
    <linearGradient id="body" x1="0" y1="0" x2="1" y2="0"><stop offset="0" stop-color="#F2F5F2"/><stop offset=".4" stop-color="#FFFFFF"/><stop offset="1" stop-color="#D5DCD6"/></linearGradient>
    <linearGradient id="cap" x1="0" y1="0" x2="1" y2="0"><stop offset="0" stop-color="#3FA75F"/><stop offset="1" stop-color="#0F7A3D"/></linearGradient>
  </defs>
  <rect width="320" height="320" fill="#FFFFFF"/>
  <circle cx="160" cy="152" r="122" fill="#E8F5EC"/>
  <ellipse cx="160" cy="258" rx="92" ry="11" fill="#14211A" opacity=".1"/>
  <!-- weed sprig on the ground -->
  <g transform="translate(62 254) scale(.7) translate(-108 -110)">
    <path d="M108 110 L84 92 L94 94 L80 80 L92 86 L84 72 L100 90Z" fill="#8DAA3B"/>
    <path d="M108 110 L132 90 L122 93 L138 80 L124 85 L134 70 L112 92Z" fill="#7A9A2E"/>
    <path d="M108 110 L100 84 L106 88 L104 72 L110 84 L114 66 L114 92Z" fill="#9DBA45"/>
  </g>
  <!-- bottle -->
  <rect x="140" y="44" width="40" height="30" rx="7" fill="url(#cap)"/>
  <g stroke="#0B6331" stroke-width="2" opacity=".6"><path d="M150 50v18"/><path d="M160 50v18"/><path d="M170 50v18"/></g>
  <rect x="146" y="72" width="28" height="18" fill="#E4E9E5"/>
  <path d="M110 104 C110 90 124 86 138 86 H182 C196 86 210 90 210 104 V236 C210 246 202 254 192 254 H128 C118 254 110 246 110 236Z" fill="url(#body)" stroke="#CBD3CC" stroke-width="1.5"/>
  <path d="M110 230 V236 C110 246 118 254 128 254 H192 C202 254 210 246 210 236 V230Z" fill="url(#cap)"/>
  <rect x="118" y="100" width="10" height="124" rx="5" fill="#FFFFFF" opacity=".7"/>
  <!-- label -->
  <rect x="118" y="118" width="84" height="104" rx="8" fill="#FFFFFF" stroke="#E3E7E4" stroke-width="1.5"/>
  <path d="M118 126 Q118 118 126 118 H194 Q202 118 202 126 V138 H118Z" fill="#0F7A3D"/>
  <rect x="128" y="209" width="64" height="5" rx="2.5" fill="#FFC72C"/>
  <!-- weed silhouette -->
  <g transform="translate(160 202) scale(.95) translate(-108 -110)">
    <path d="M108 110 C106 96 104 84 100 70" stroke="#6E8B2A" stroke-width="2.6" fill="none" stroke-linecap="round"/>
    <path d="M108 110 L84 92 L94 94 L80 80 L92 86 L84 72 L100 90Z" fill="#8DAA3B"/>
    <path d="M108 110 L132 90 L122 93 L138 80 L124 85 L134 70 L112 92Z" fill="#7A9A2E"/>
    <path d="M108 110 L100 84 L106 88 L104 72 L110 84 L114 66 L114 92Z" fill="#9DBA45"/>
    <circle cx="100" cy="64" r="8" fill="#FFC72C"/>
    <g fill="#F5B800"><circle cx="100" cy="55" r="3.4"/><circle cx="108" cy="61" r="3.4"/><circle cx="105" cy="70" r="3.4"/><circle cx="95" cy="70" r="3.4"/><circle cx="92" cy="61" r="3.4"/></g>
    <circle cx="100" cy="64" r="3.6" fill="#7A4E2D"/>
  </g>
  <!-- crossed out -->
  <circle cx="160" cy="176" r="30" fill="none" stroke="#B42318" stroke-width="3" opacity=".7"/>
  <path d="M139 155 L181 197" stroke="#B42318" stroke-width="3" stroke-linecap="round" opacity=".7"/>
  <!-- brand ribbon -->
  <rect x="16" y="286" width="92" height="18" rx="9" fill="#0F7A3D"/>
  <text x="62" y="299" text-anchor="middle" font-family="Manrope, Inter, Arial, sans-serif" font-weight="800" font-size="10" fill="#FFFFFF" letter-spacing="1.5">SURYA</text>
</svg>
