<svg xmlns="http://www.w3.org/2000/svg" viewBox="0 0 320 320" role="img" aria-hidden="true">
  <defs>
    <linearGradient id="pk" x1="0" y1="0" x2="1" y2="0"><stop offset="0" stop-color="#F2CF7A"/><stop offset=".5" stop-color="#FFF0C2"/><stop offset="1" stop-color="#E7B95C"/></linearGradient>
  </defs>
  <rect width="320" height="320" fill="#FFFFFF"/>
  <circle cx="160" cy="150" r="122" fill="#FFF6D9"/>
  <ellipse cx="160" cy="256" rx="104" ry="12" fill="#7A4E2D" opacity=".14"/>
  <!-- packet -->
  <g transform="rotate(-6 160 150)">
    <path d="M90 56 L97 44 L104 56 L111 44 L118 56 L125 44 L132 56 L139 44 L146 56 L153 44 L160 56 L167 44 L174 56 L181 44 L188 56 L195 44 L202 56 L209 44 L216 56 L223 44 L230 56 V238 Q230 244 224 244 H96 Q90 244 90 238Z" fill="url(#pk)"/>
    <rect x="90" y="62" width="140" height="10" fill="#C8955E" opacity=".45"/>
    <rect x="98" y="80" width="10" height="150" rx="5" fill="#FFFFFF" opacity=".35"/>
    <rect x="106" y="86" width="108" height="104" rx="12" fill="#FFFFFF" stroke="#0F7A3D" stroke-width="2.5"/>
    <path d="M160 180 V104" stroke="#7A4E2D" stroke-width="3.5" stroke-linecap="round"/>
    <g fill="#FFC72C" stroke="#D99A00" stroke-width="1.2">
      <ellipse cx="149" cy="118" rx="6.5" ry="12" transform="rotate(-30 149 118)"/><ellipse cx="171" cy="118" rx="6.5" ry="12" transform="rotate(30 171 118)"/>
      <ellipse cx="149" cy="138" rx="6.5" ry="12" transform="rotate(-30 149 138)"/><ellipse cx="171" cy="138" rx="6.5" ry="12" transform="rotate(30 171 138)"/>
      <ellipse cx="149" cy="158" rx="6.5" ry="12" transform="rotate(-30 149 158)"/><ellipse cx="171" cy="158" rx="6.5" ry="12" transform="rotate(30 171 158)"/>
      <ellipse cx="160" cy="102" rx="6" ry="11"/>
    </g>
    <path d="M160 180 C148 180 140 172 138 162 C150 162 158 170 160 180Z" fill="#3FA75F"/>
    <path d="M160 176 C172 176 180 168 182 158 C170 158 162 166 160 176Z" fill="#1F8A4C"/>
    <rect x="114" y="204" width="92" height="10" rx="5" fill="#0F7A3D"/>
    <rect x="124" y="222" width="72" height="6" rx="3" fill="#C8955E" opacity=".6"/>
  </g>
  <!-- spilled seeds -->
  <g fill="#B07A3E" stroke="#7A4E2D" stroke-width="1.2">
    <ellipse cx="252" cy="244" rx="8" ry="5" transform="rotate(20 252 244)"/><ellipse cx="270" cy="236" rx="8" ry="5" transform="rotate(-30 270 236)"/>
    <ellipse cx="264" cy="256" rx="8" ry="5" transform="rotate(60 264 256)"/><ellipse cx="284" cy="250" rx="8" ry="5"/>
    <ellipse cx="240" cy="258" rx="8" ry="5" transform="rotate(-10 240 258)"/>
    <ellipse cx="62" cy="250" rx="8" ry="5" transform="rotate(25 62 250)"/><ellipse cx="46" cy="240" rx="8" ry="5" transform="rotate(-20 46 240)"/>
  </g>
  <path d="M280 226 C280 212 288 202 300 198 C300 212 292 222 280 226Z" fill="#3FA75F"/>
  <path d="M280 240 V222" stroke="#0F7A3D" stroke-width="3" stroke-linecap="round"/>
  <!-- brand ribbon -->
  <rect x="16" y="286" width="92" height="18" rx="9" fill="#0F7A3D"/>
  <text x="62" y="299" text-anchor="middle" font-family="Manrope, Inter, Arial, sans-serif" font-weight="800" font-size="10" fill="#FFFFFF" letter-spacing="1.5">SURYA</text>
</svg>
